# xmcd
# 
# Track frame offsets:
#     150
#     21064
#     35371
#     54761
#     74412
#     99627
#     120200
#     134188
#     152695
#     173004
# 
# Disc length: 2632
# 
# Revision: 1
# Processed by: cddbd v1.5.2PL0 Copyright (c) Steve Scherf et al.
# Submitted via: fre:ac v1.0.31
# 
DISCID=7b0a460a
DTITLE=Erin Harpe And The Delta Swingers - Love Whip Blues
DYEAR=2014
DGENRE=Blues
TTITLE0=The Delta Swing
TTITLE1=Love Whip Blues
TTITLE2=Future Blues
TTITLE3=Good Luck Baby
TTITLE4=The M&O Blues
TTITLE5=One Way Man
TTITLE6=Pick Poor Robin Clean
TTITLE7=Virtual Booty Blues
TTITLE8=Charles River Delta Blues
TTITLE9=Angel From Montgomery
EXTD=
EXTT0=
EXTT1=
EXTT2=
EXTT3=
EXTT4=
EXTT5=
EXTT6=
EXTT7=
EXTT8=
EXTT9=
PLAYORDER=
